<?xml version="1.0" encoding="UTF-8"?><svg id="Layer_1" xmlns="http://www.w3.org/2000/svg" viewBox="0 0 959.59 300"><defs><style>.cls-1{opacity:.5;}.cls-1,.cls-2{fill:#004c73;stroke-width:0px;}</style></defs><rect class="cls-2" x="243.76" y="100" width="13.7" height="98.63"/><path class="cls-2" d="m337.59,173.28c-1.74,4.02-5.01,7.65-9.8,10.89-4.79,3.24-10.66,4.87-17.6,4.87s-12.56-1.76-16.3-5.27c-3.75-3.52-5.62-8.38-5.62-14.59v-45.89h-13.69v45.89c0,9.78,2.92,17.35,8.76,22.74,5.85,5.39,14.34,8.08,25.48,8.08,6.57,0,12.37-1.39,17.4-4.18,5.02-2.78,8.58-5.86,10.68-9.25h.69v12.06h13.69v-75.34h-13.69v50Z"/><path class="cls-2" d="m464.3,121.92c-6.12,0-11.69,1.42-16.72,4.25-5.02,2.83-8.81,5.99-11.36,9.45h-.69c-1.56-3.47-4.68-6.62-9.39-9.45-4.7-2.83-10.48-4.25-17.33-4.25-5.84,0-11.05,1.39-15.61,4.18-4.57,2.79-7.81,5.87-9.73,9.25h-.69v-12.06h-13.7v75.34h13.7v-50c1.55-4.02,4.5-7.65,8.83-10.89,4.34-3.24,9.61-4.86,15.82-4.86,5.57,0,10.04,1.78,13.42,5.34,3.38,3.56,5.07,8.41,5.07,14.52v45.89h13.7v-45.89c0-2.55-.23-5.07-.69-7.54,1.92-3.19,5.02-6.05,9.31-8.56,4.29-2.51,9.18-3.76,14.66-3.76,6.21,0,11.07,1.76,14.59,5.27,3.52,3.52,5.28,8.38,5.28,14.59v45.89h13.7v-45.89c0-9.68-2.81-17.23-8.42-22.67-5.62-5.43-13.54-8.15-23.77-8.15Z"/><path class="cls-2" d="m581.83,127.06c-6.94-3.42-15.07-5.14-24.38-5.14s-17.45,1.72-24.39,5.14c-6.94,3.42-12.26,8.1-15.96,14.04-3.7,5.94-5.55,12.56-5.55,19.87s1.85,13.92,5.55,19.86c3.7,5.94,9.02,10.62,15.96,14.04,6.94,3.43,15.07,5.14,24.39,5.14s17.44-1.71,24.38-5.14c6.94-3.42,12.26-8.1,15.96-14.04,3.7-5.94,5.55-12.55,5.55-19.86s-1.85-13.93-5.55-19.87c-3.7-5.94-9.02-10.62-15.96-14.04Zm-.48,53.9c-5.52,4.93-13.49,7.4-23.9,7.4s-18.38-2.47-23.91-7.4c-5.52-4.93-8.29-11.6-8.29-20s2.76-15.07,8.29-20c5.52-4.93,13.49-7.4,23.91-7.4s18.38,2.47,23.9,7.4c5.52,4.93,8.29,11.59,8.29,20s-2.76,15.07-8.29,20Z"/><rect class="cls-2" x="647.96" y="100" width="13.7" height="98.63"/><path class="cls-2" d="m746.65,128.22c-5.89-4.2-15.73-6.3-29.52-6.3-7.76,0-14.82.85-21.16,2.54-6.35,1.69-11.16,3.58-14.45,5.69v13.01c3.92-2.47,9.09-4.68,15.48-6.64,6.39-1.96,12.88-2.95,19.45-2.95,16.89,0,25.34,3.88,25.34,11.64,0,2.01-.64,3.59-1.92,4.73-1.28,1.14-3.97,2.01-8.08,2.6-4.11.6-10.41.89-18.9.89-12.33,0-21.44,2.17-27.33,6.5-5.89,4.34-8.83,10.16-8.83,17.47,0,6.76,2.51,12.21,7.54,16.37,5.02,4.15,12.32,6.23,21.92,6.23,8.03,0,15.25-1.37,21.64-4.11,6.39-2.74,11.05-5.75,13.97-9.04v11.78h13.7v-52.05c0-8.03-2.94-14.15-8.83-18.35Zm-4.86,47.67c-2.29,3.2-6.28,6.08-11.99,8.63s-12.44,3.83-20.21,3.83c-6.48,0-11.3-1.1-14.45-3.29-3.15-2.19-4.72-4.98-4.72-8.36,0-8.68,7.3-13.01,21.92-13.01,8.67,0,15.52-.48,20.55-1.44s7.99-2.03,8.91-3.22v16.84Z"/><path class="cls-2" d="m854.18,141.1c-3.61-5.94-8.67-10.62-15.2-14.04-6.53-3.42-14.05-5.14-22.53-5.14-6.39,0-12.24,1.14-17.54,3.43s-9.27,4.79-11.92,7.54h-.69v-32.88h-13.7v98.63h13.7v-9.59h.69c2.65,2.74,6.62,5.25,11.92,7.53,5.3,2.29,11.14,3.43,17.54,3.43,8.49,0,16-1.71,22.53-5.14,6.53-3.42,11.59-8.1,15.2-14.04s5.41-12.55,5.41-19.86-1.81-13.93-5.41-19.87Zm-12.12,34.04c-2.55,4.16-6.25,7.4-11.09,9.73-4.84,2.33-10.6,3.49-17.26,3.49-6.21,0-11.76-1.21-16.64-3.63-4.88-2.42-8.47-5.09-10.75-8.02v-31.51c2.28-3.01,5.87-5.7,10.75-8.08,4.89-2.37,10.43-3.56,16.64-3.56,6.67,0,12.42,1.16,17.26,3.49,4.84,2.33,8.54,5.57,11.09,9.73,2.56,4.16,3.84,8.88,3.84,14.18s-1.28,10.02-3.84,14.17Z"/><path class="cls-2" d="m123.83,138.8h-23.8v31.7c0,16.71,12.37,28.13,29.73,28.13h30.1v-23.8h-36.03v-36.03Z"/><ellipse class="cls-2" cx="112.92" cy="112.91" rx="12.92" ry="12.91"/><path class="cls-1" d="m125.83,112.91c0,7.13-5.78,12.91-12.92,12.91-2.22,0-4.32-.56-6.15-1.55l91.86,50.55v-74.81h-85.71c7.13,0,12.92,5.78,12.92,12.91Z"/></svg>